<svg 
 xmlns="http://www.w3.org/2000/svg"
 xmlns:xlink="http://www.w3.org/1999/xlink"
 width="541px" height="156px">
<path fill-rule="evenodd"  fill="rgb(30, 30, 30)"
 d="M400.140,49.060 L400.140,62.344 L358.289,62.344 L358.289,6.720 L400.140,6.720 L400.140,19.557 L375.038,19.557 L375.038,27.625 L395.331,27.625 L395.331,39.972 L375.038,39.972 L375.038,49.060 L400.140,49.060 ZM351.240,46.411 C351.240,50.541 349.969,54.229 347.430,57.475 C344.889,60.721 339.463,62.344 331.150,62.344 L304.662,62.344 L304.662,6.720 L332.902,6.720 C338.770,6.720 343.049,8.201 345.738,11.162 C348.428,14.124 349.773,17.506 349.773,21.309 C349.773,24.080 348.991,26.586 347.430,28.827 C345.867,31.069 343.538,32.611 340.441,33.452 C347.640,35.191 351.240,39.511 351.240,46.411 ZM328.012,18.660 L320.392,18.660 L320.392,28.033 L328.297,28.033 C330.280,28.033 331.680,27.530 332.495,26.525 C333.310,25.520 333.717,24.447 333.717,23.306 C333.717,20.209 331.815,18.660 328.012,18.660 ZM333.289,41.460 C332.352,40.387 330.634,39.850 328.134,39.850 L320.392,39.850 L320.392,49.956 L328.705,49.956 C330.769,49.956 332.284,49.447 333.249,48.428 C334.213,47.409 334.695,46.262 334.695,44.985 C334.695,43.708 334.227,42.533 333.289,41.460 ZM273.122,63.200 C266.113,63.200 260.483,61.733 256.231,58.799 C251.979,55.865 249.854,51.084 249.854,44.455 L249.854,6.720 L267.213,6.720 L267.213,42.458 C267.213,45.121 267.775,47.063 268.899,48.285 C270.024,49.508 271.819,50.119 274.285,50.119 C276.343,50.119 278.029,49.678 279.343,48.795 C280.658,47.912 281.443,46.914 281.701,45.800 C281.958,44.686 282.087,42.513 282.087,39.280 L282.087,6.720 L295.535,6.720 L295.535,43.558 C295.535,50.541 293.463,55.559 289.320,58.616 C285.177,61.672 279.778,63.200 273.122,63.200 ZM221.003,50.323 C225.512,50.323 228.039,47.253 228.582,41.113 L244.190,42.051 C243.456,48.870 240.936,54.099 236.630,57.739 C232.324,61.380 227.034,63.200 220.758,63.200 C213.206,63.200 207.107,60.701 202.462,55.702 C197.816,50.704 195.493,43.803 195.493,35.001 C195.493,26.280 197.694,19.245 202.095,13.892 C206.496,8.541 212.635,5.865 220.514,5.865 C227.876,5.865 233.533,7.902 237.486,11.977 C241.439,16.052 243.673,21.459 244.190,28.196 L228.256,29.051 C228.256,25.330 227.543,22.640 226.117,20.983 C224.691,19.326 223.013,18.497 221.084,18.497 C215.705,18.497 213.016,23.904 213.016,34.716 C213.016,40.774 213.715,44.890 215.114,47.063 C216.513,49.237 218.476,50.323 221.003,50.323 Z"/>
<path fill-rule="evenodd"  fill="rgb(46, 46, 46)"
 d="M522.702,150.135 L519.559,139.174 L504.658,139.174 L501.318,150.135 L487.457,150.135 L504.628,94.512 L522.681,94.512 L540.126,150.135 L522.702,150.135 ZM512.059,110.895 L507.560,127.030 L516.560,127.030 L512.059,110.895 ZM466.481,110.364 L456.191,150.135 L445.352,150.135 L434.655,110.364 L434.655,150.135 L421.859,150.135 L421.859,94.512 L444.170,94.512 L452.238,124.055 L459.940,94.512 L482.332,94.512 L482.332,150.135 L466.481,150.135 L466.481,110.364 ZM388.241,150.991 C380.417,150.991 374.039,148.397 369.109,143.208 C364.178,138.019 361.712,131.078 361.712,122.385 C361.712,114.072 364.069,107.205 368.783,101.786 C373.496,96.366 380.036,93.656 388.404,93.656 C396.146,93.656 402.455,96.210 407.332,101.317 C412.208,106.425 414.647,113.243 414.647,121.773 C414.647,130.603 412.188,137.680 407.271,143.004 C402.354,148.329 396.010,150.991 388.241,150.991 ZM388.485,106.289 C382.888,106.289 380.091,111.804 380.091,122.833 C380.091,133.183 382.780,138.359 388.159,138.359 C391.038,138.359 393.110,137.102 394.374,134.589 C395.637,132.077 396.268,127.478 396.268,120.795 C396.268,111.124 393.674,106.289 388.485,106.289 ZM337.853,150.135 L329.729,128.864 L324.345,128.864 L324.345,150.135 L307.270,150.135 L307.270,94.512 L336.325,94.512 C342.736,94.512 347.715,96.013 351.260,99.015 C354.805,102.017 356.578,105.977 356.578,110.893 C356.578,114.099 355.926,116.931 354.622,119.390 C353.318,121.849 350.683,124.015 346.716,125.889 L356.782,150.135 L337.853,150.135 ZM332.209,106.329 L324.345,106.329 L324.345,116.965 L331.639,116.965 C333.785,116.965 335.510,116.517 336.814,115.620 C338.118,114.724 338.770,113.406 338.770,111.668 C338.770,108.109 336.583,106.329 332.209,106.329 ZM280.539,128.497 L267.499,128.497 L267.499,150.135 L250.424,150.135 L250.424,94.512 L267.499,94.512 L267.499,114.968 L280.539,114.968 L280.539,94.512 L297.613,94.512 L297.613,150.135 L280.539,150.135 L280.539,128.497 ZM221.003,138.114 C225.512,138.114 228.039,135.045 228.582,128.905 L244.190,129.842 C243.456,136.661 240.936,141.891 236.630,145.531 C232.324,149.171 227.034,150.991 220.758,150.991 C213.206,150.991 207.107,148.492 202.462,143.493 C197.816,138.495 195.493,131.594 195.493,122.792 C195.493,114.072 197.694,107.036 202.095,101.684 C206.496,96.332 212.635,93.656 220.514,93.656 C227.876,93.656 233.533,95.694 237.486,99.769 C241.439,103.844 243.673,109.250 244.190,115.987 L228.256,116.843 C228.256,113.121 227.543,110.432 226.117,108.774 C224.691,107.118 223.013,106.289 221.084,106.289 C215.705,106.289 213.016,111.695 213.016,122.507 C213.016,128.565 213.715,132.681 215.114,134.854 C216.513,137.028 218.476,138.114 221.003,138.114 Z"/>
<path fill-rule="evenodd"  fill="rgb(46, 46, 46)"
 d="M10.000,52.000 L94.000,52.000 C99.523,52.000 104.000,56.477 104.000,62.000 L104.000,146.000 C104.000,151.523 99.523,156.000 94.000,156.000 L10.000,156.000 C4.477,156.000 -0.000,151.523 -0.000,146.000 L-0.000,62.000 C-0.000,56.477 4.477,52.000 10.000,52.000 Z"/>
<path fill-rule="evenodd"  fill="rgb(30, 30, 30)"
 d="M67.000,-0.000 L141.000,-0.000 C149.284,-0.000 156.000,6.716 156.000,15.000 L156.000,89.000 C156.000,97.284 149.284,104.000 141.000,104.000 L67.000,104.000 C58.716,104.000 52.000,97.284 52.000,89.000 L52.000,15.000 C52.000,6.716 58.716,-0.000 67.000,-0.000 Z"/>
<path fill-rule="evenodd"  fill="rgb(156, 156, 156)"
 d="M40.000,33.000 L52.000,33.000 L52.000,52.000 L33.000,52.000 L33.000,40.000 C33.000,36.134 36.134,33.000 40.000,33.000 Z"/>
<path fill-rule="evenodd"  fill="rgb(156, 156, 156)"
 d="M104.000,104.000 L139.000,104.000 L139.000,132.000 C139.000,135.866 135.866,139.000 132.000,139.000 L104.000,139.000 L104.000,104.000 Z"/>
</svg>